<svg version="1.1" id="Layer_1" xmlns="http://www.w3.org/2000/svg" xmlns:xlink="http://www.w3.org/1999/xlink" x="0px" y="0px"
	 width="100%" viewBox="0 0 655 655" enable-background="new 0 0 655 655" xml:space="preserve">
<path fill="#000000" opacity="1.000000" stroke="none" 
	d="
M446.000000,656.000000 
	C297.333344,656.000000 149.166672,656.000000 1.000000,656.000000 
	C1.000000,437.666656 1.000000,219.333328 1.000000,1.000000 
	C219.333328,1.000000 437.666656,1.000000 656.000000,1.000000 
	C656.000000,219.333328 656.000000,437.666656 656.000000,656.000000 
	C586.166687,656.000000 516.333313,656.000000 446.000000,656.000000 
M502.554291,507.918701 
	C502.706573,507.615997 502.858826,507.313293 503.000000,507.000000 
	C503.000000,507.000000 503.011383,507.010101 503.646484,506.809174 
	C504.110565,505.882202 504.574677,504.955231 505.001221,503.998779 
	C505.001221,503.998779 505.029449,504.036835 505.663971,503.847137 
	C506.110046,502.899200 506.556122,501.951263 507.000000,501.000000 
	C507.000000,501.000000 507.003540,501.002014 507.683960,500.811920 
	C508.383240,499.194305 509.082489,497.576660 509.902679,495.492676 
	C509.902679,495.492676 510.011841,495.023438 510.526001,494.910400 
	C510.361816,494.585419 510.197632,494.260406 510.293915,493.201324 
	C511.186371,490.289001 512.854492,487.377808 512.858765,484.464203 
	C512.991333,393.317810 512.761963,302.170441 513.130737,211.025360 
	C513.201843,193.441574 500.489288,175.862167 485.008911,171.733597 
	C478.702209,170.051636 471.942078,170.069748 466.063660,169.392212 
	C466.063660,174.030457 466.044250,177.274429 466.069397,180.518051 
	C466.092621,183.508774 465.000549,187.641098 466.520142,189.188873 
	C468.260864,190.961929 472.330627,190.502670 475.402863,190.903198 
	C482.246002,191.795395 490.449890,198.303040 490.962830,204.601761 
	C491.938599,216.584610 492.106934,228.633194 492.613892,240.733917 
	C385.794159,240.733917 279.945312,240.733917 173.952957,240.733917 
	C173.952957,230.559738 173.447586,220.709686 174.099518,210.936829 
	C174.713287,201.735977 178.431412,194.098999 188.884506,191.527405 
	C192.785706,190.567688 196.816910,190.136459 200.759583,189.469208 
	C200.842987,189.274963 200.960709,189.128433 200.960739,188.981873 
	C200.961426,185.649948 200.946686,182.318008 200.940231,178.986084 
	C200.934814,176.188965 202.038422,172.073166 200.661102,170.921951 
	C198.859329,169.415970 195.100357,170.223602 192.180923,170.087234 
	C171.491547,169.120804 153.040482,188.983566 153.019531,209.031326 
	C152.984741,242.356400 153.005295,275.681549 153.023788,309.006653 
	C153.055435,365.991821 153.103500,422.976990 152.967712,480.792206 
	C153.273773,482.875427 153.579819,484.958679 154.039612,487.759094 
	C154.089661,488.489807 154.139694,489.220520 154.025665,490.710388 
	C156.345093,495.139526 158.664520,499.568634 160.993118,504.005890 
	C160.993118,504.005890 161.001480,504.014160 161.017548,504.699432 
	C162.352692,506.119476 163.687836,507.539490 165.000809,509.002411 
	C165.000809,509.002411 165.043854,508.980499 165.105621,509.510529 
	C165.405792,509.665741 165.705963,509.820953 165.995590,510.001251 
	C165.995590,510.001251 166.021378,509.993469 166.175858,510.660461 
	C168.450485,512.107117 170.725113,513.553772 173.000000,515.000000 
	C173.000000,515.000000 172.999359,515.000183 173.214935,515.676636 
	C178.157211,517.392944 183.099487,519.109314 188.687378,520.921936 
	C189.118210,520.971680 189.549026,521.021362 190.421555,521.821899 
	C201.062424,521.888672 211.703293,522.014648 222.344147,522.012756 
	C299.883942,521.998840 377.423706,521.959167 455.726593,522.082642 
	C456.499207,522.027161 457.271851,521.971680 458.972015,521.987122 
	C464.660461,521.696411 470.348877,521.405701 476.762268,520.976440 
	C477.497681,520.935120 478.233063,520.893799 479.753815,521.021973 
	C486.916290,519.106140 493.940399,516.923523 499.497559,510.845795 
	C499.790649,510.649841 499.962128,510.377380 500.545654,509.938477 
	C500.717163,509.637299 500.888672,509.336090 501.005737,509.000702 
	C501.005737,509.000702 501.035034,509.057953 501.566437,508.951447 
	C501.728882,508.646515 501.891296,508.341614 501.998932,508.004089 
	C501.998932,508.004089 502.039429,508.053589 502.554291,507.918701 
M223.000000,221.000000 
	C223.000000,221.000000 222.984589,221.012634 223.201736,221.723587 
	C229.908218,225.717163 236.826889,226.494232 244.738754,222.951050 
	C253.684158,219.753052 259.884583,208.352234 258.938354,200.337189 
	C258.894684,199.889297 258.851013,199.441422 258.978394,198.075134 
	C258.920349,193.055222 258.862335,188.035324 258.937775,182.267502 
	C258.893280,181.511810 258.848785,180.756134 258.973083,179.346039 
	C258.917267,178.902603 258.861420,178.459167 258.939117,177.161453 
	C258.894623,175.434586 258.850128,173.707718 258.976440,171.115845 
	C258.305054,167.135788 258.337433,162.863220 256.828094,159.231415 
	C252.586975,149.026596 239.908020,143.515579 231.973587,145.400452 
	C218.280090,148.653381 211.593002,156.145630 211.154724,168.462341 
	C210.800064,178.428528 211.270233,188.422058 211.020782,198.394608 
	C210.796326,207.367889 213.531982,214.758423 221.191971,220.687637 
	C221.790710,220.797180 222.389465,220.906723 223.000000,221.000000 
M270.895813,190.981064 
	C279.937805,190.952698 288.979797,190.924347 298.951752,190.994843 
	C302.934753,191.004074 306.917847,191.031204 310.900787,191.019623 
	C336.949036,190.943832 362.997253,190.859650 389.878784,190.880264 
	C392.236725,190.488754 394.594666,190.097229 397.804230,189.871826 
	C398.000641,183.366882 398.198273,176.861954 398.333923,170.355743 
	C398.334290,170.337402 397.429688,170.300217 396.022919,170.159988 
	C354.034698,170.204132 312.046448,170.248291 269.331848,170.301712 
	C269.209442,174.870804 269.087036,179.439896 269.062500,184.757919 
	C269.067535,185.513184 269.072571,186.268448 268.497620,187.300400 
	C268.987000,188.475174 269.476379,189.649963 270.895813,190.981064 
M444.822052,221.598816 
	C454.345062,214.757263 456.822418,205.202103 456.070984,194.022781 
	C455.558624,186.400299 455.777893,178.706772 456.052124,171.058716 
	C456.409027,161.106354 450.054901,149.983139 438.036530,146.335785 
	C424.972534,142.371140 407.979614,153.057083 408.068085,168.597473 
	C408.129700,179.417160 407.700226,190.254166 408.207214,201.049744 
	C408.413025,205.431351 409.601654,210.314514 411.934387,213.947723 
	C419.479126,225.698288 431.468842,226.235703 444.822052,221.598816 
z"/>
<path fill="#95EC9F" opacity="1.000000" stroke="none" 
	d="
M500.011963,510.028351 
	C499.962128,510.377380 499.790649,510.649841 498.897034,510.926697 
	C492.224792,513.770813 486.143555,516.513611 480.098938,519.334778 
	C479.595642,519.569702 479.339447,520.334045 478.968475,520.852478 
	C478.233063,520.893799 477.497681,520.935120 476.073181,520.789062 
	C470.823975,520.466125 466.263885,520.330688 461.254059,520.184814 
	C436.831573,520.123352 412.858795,520.020264 388.886078,520.031860 
	C334.281830,520.058228 279.677612,520.140930 224.602310,520.137939 
	C213.818344,520.105530 203.505432,520.135925 192.840698,520.140320 
	C191.652527,520.433228 190.816193,520.752136 189.979858,521.071045 
	C189.549026,521.021362 189.118210,520.971680 188.220444,520.559082 
	C182.835449,518.464294 177.917404,516.732239 172.999359,515.000183 
	C172.999359,515.000183 173.000000,515.000000 172.945251,514.663086 
	C170.600800,512.881897 168.311081,511.437683 166.021378,509.993469 
	C166.021378,509.993469 165.995590,510.001251 165.920441,509.756287 
	C165.655197,509.218079 165.388046,509.041138 165.043854,508.980499 
	C165.043854,508.980499 165.000809,509.002411 165.034210,508.622711 
	C163.712234,506.833374 162.356857,505.423767 161.001495,504.014160 
	C161.001480,504.014160 160.993118,504.005890 161.002518,503.625854 
	C158.737869,498.814270 156.463806,494.382751 154.189743,489.951233 
	C154.139694,489.220520 154.089661,488.489807 154.202255,487.112732 
	C153.958145,484.298309 153.551392,482.130249 153.144653,479.962158 
	C153.103500,422.976990 153.055435,365.991821 153.023788,309.006653 
	C153.005295,275.681549 152.984741,242.356400 153.019531,209.031326 
	C153.040482,188.983566 171.491547,169.120804 192.180923,170.087234 
	C195.100357,170.223602 198.859329,169.415970 200.661102,170.921951 
	C202.038422,172.073166 200.934814,176.188965 200.940231,178.986084 
	C200.946686,182.318008 200.961426,185.649948 200.960739,188.981873 
	C200.960709,189.128433 200.842987,189.274963 200.759583,189.469208 
	C196.816910,190.136459 192.785706,190.567688 188.884506,191.527405 
	C178.431412,194.098999 174.713287,201.735977 174.099518,210.936829 
	C173.447586,220.709686 173.952957,230.559738 173.952957,240.733917 
	C279.945312,240.733917 385.794159,240.733917 492.613892,240.733917 
	C492.106934,228.633194 491.938599,216.584610 490.962830,204.601761 
	C490.449890,198.303040 482.246002,191.795395 475.402863,190.903198 
	C472.330627,190.502670 468.260864,190.961929 466.520142,189.188873 
	C465.000549,187.641098 466.092621,183.508774 466.069397,180.518051 
	C466.044250,177.274429 466.063660,174.030457 466.063660,169.392212 
	C471.942078,170.069748 478.702209,170.051636 485.008911,171.733597 
	C500.489288,175.862167 513.201843,193.441574 513.130737,211.025360 
	C512.761963,302.170441 512.991333,393.317810 512.858765,484.464203 
	C512.854492,487.377808 511.186371,490.289001 510.139587,493.840027 
	C509.994110,494.660309 510.002960,494.841888 510.011841,495.023438 
	C510.011841,495.023438 509.902679,495.492676 509.512024,495.812988 
	C508.415436,497.756226 507.709503,499.379120 507.003540,501.002014 
	C507.003540,501.002014 507.000000,501.000000 506.667023,501.070190 
	C505.899170,502.105865 505.464294,503.071350 505.029419,504.036835 
	C505.029449,504.036835 505.001221,503.998779 504.684174,504.077515 
	C503.915222,505.107544 503.463287,506.058838 503.011383,507.010101 
	C503.011383,507.010101 503.000000,507.000000 502.784485,507.117615 
	C502.290253,507.441895 502.113739,507.714691 502.039429,508.053589 
	C502.039429,508.053589 501.998932,508.004089 501.803955,508.132385 
	C501.328613,508.462341 501.137299,508.728088 501.035034,509.057953 
	C501.035034,509.057953 501.005737,509.000702 500.803711,509.118073 
	C500.405090,509.499756 500.208527,509.764069 500.011963,510.028351 
M473.728882,501.994202 
	C477.512207,500.433044 481.632629,499.373444 484.961609,497.136200 
	C487.220032,495.618469 488.367371,492.447510 490.000000,490.000000 
	C490.000000,490.000000 490.016571,490.010895 490.713043,489.845764 
	C491.840607,485.830658 493.940826,481.818024 493.951202,477.800049 
	C494.133881,407.006958 494.014160,336.213135 494.150604,265.419830 
	C494.159729,260.675140 492.357330,260.041748 488.288086,260.045135 
	C387.178345,260.129395 286.068420,260.065155 184.958649,260.136017 
	C170.232361,260.146332 172.094818,257.723297 172.056335,273.982391 
	C172.041107,342.172424 171.992996,410.362518 172.126587,478.552277 
	C172.132141,481.387634 173.836212,484.219666 174.877380,487.526245 
	C174.877380,487.526245 175.004013,487.999725 175.115295,488.429810 
	C175.266571,488.697021 175.481491,488.895264 175.876373,489.524536 
	C175.913925,489.691467 175.951492,489.858429 175.955948,490.714844 
	C176.641800,491.475006 177.327652,492.235138 178.608109,493.227112 
	C179.730408,494.213715 180.852707,495.200317 182.257401,496.541016 
	C182.461884,496.786255 182.723053,496.923950 183.579544,497.184509 
	C184.042801,497.523621 184.506058,497.862762 185.253067,498.563019 
	C185.463577,498.808868 185.730011,498.946350 186.740982,499.083588 
	C187.811935,499.454315 188.882904,499.825043 190.137085,500.753235 
	C190.758682,501.169495 191.380280,501.585754 192.668030,502.494385 
	C194.306808,502.662659 195.945557,502.977783 197.584381,502.978241 
	C287.445709,503.003540 377.307007,503.008057 467.168304,502.966705 
	C469.099731,502.965790 471.030884,502.406769 473.728882,501.994202 
z"/>
<path fill="#92E59D" opacity="1.000000" stroke="none" 
	d="
M444.467194,221.762283 
	C431.468842,226.235703 419.479126,225.698288 411.934387,213.947723 
	C409.601654,210.314514 408.413025,205.431351 408.207214,201.049744 
	C407.700226,190.254166 408.129700,179.417160 408.068085,168.597473 
	C407.979614,153.057083 424.972534,142.371140 438.036530,146.335785 
	C450.054901,149.983139 456.409027,161.106354 456.052124,171.058716 
	C455.777893,178.706772 455.558624,186.400299 456.070984,194.022781 
	C456.822418,205.202103 454.345062,214.757263 444.467194,221.762283 
M436.144653,198.201111 
	C436.127106,189.573639 436.079529,180.946075 436.107971,172.318741 
	C436.118164,169.232315 436.327576,165.855896 431.978851,166.003998 
	C428.222412,166.131912 428.009949,169.268906 427.999237,172.146057 
	C427.965942,181.105286 427.967773,190.064682 427.981445,199.023987 
	C427.985291,201.549698 428.040131,204.144638 431.576202,204.189575 
	C434.956116,204.232513 436.298401,202.331741 436.144653,198.201111 
z"/>
<path fill="#92E69D" opacity="1.000000" stroke="none" 
	d="
M220.983719,220.098389 
	C213.531982,214.758423 210.796326,207.367889 211.020782,198.394608 
	C211.270233,188.422058 210.800064,178.428528 211.154724,168.462341 
	C211.593002,156.145630 218.280090,148.653381 231.973587,145.400452 
	C239.908020,143.515579 252.586975,149.026596 256.828094,159.231415 
	C258.337433,162.863220 258.305054,167.135788 258.702393,171.262665 
	C258.149353,170.086136 257.870422,168.762756 257.591461,167.439392 
	C256.980225,178.247253 256.958282,188.964554 257.057495,199.680740 
	C257.061646,200.126724 258.198059,200.562225 258.806976,201.002625 
	C259.884583,208.352234 253.684158,219.753052 244.108124,222.771606 
	C236.646530,222.065659 229.815552,221.539154 222.984589,221.012634 
	C222.984589,221.012634 223.000000,221.000000 222.976227,220.732025 
	C222.296204,220.342163 221.639969,220.220276 220.983719,220.098389 
M238.878799,168.240906 
	C237.187286,167.485947 234.525711,165.681473 233.989838,166.176788 
	C232.502472,167.551559 231.139145,169.859589 231.077209,171.841064 
	C230.787292,181.119812 230.739944,190.421844 231.136185,199.692886 
	C231.213852,201.510162 233.520874,204.569580 235.003357,204.697586 
	C237.692474,204.929810 239.277008,202.850540 239.187485,199.450180 
	C238.921341,189.340195 239.097809,179.218567 238.878799,168.240906 
z"/>
<path fill="#95EDA0" opacity="1.000000" stroke="none" 
	d="
M270.058228,170.292450 
	C312.046448,170.248291 354.034698,170.204132 396.507019,170.666321 
	C396.978271,177.350357 396.965454,183.528030 396.952606,189.705719 
	C394.594666,190.097229 392.236725,190.488754 389.313385,190.467163 
	C387.701355,189.706421 386.654816,189.055542 385.608124,189.055344 
	C356.372955,189.050049 327.137787,189.110641 297.443024,189.138153 
	C287.988892,189.064804 278.994354,189.013641 269.967285,188.683044 
	C269.649048,187.943649 269.363342,187.483688 269.077637,187.023712 
	C269.072571,186.268448 269.067535,185.513184 269.279175,184.067398 
	C269.683289,179.015396 269.870758,174.653931 270.058228,170.292450 
z"/>
<path fill="#7CBD84" opacity="1.000000" stroke="none" 
	d="
M190.200714,521.446472 
	C190.816193,520.752136 191.652527,520.433228 193.167175,520.351440 
	C204.260223,520.691650 214.674957,520.794678 225.552582,520.907227 
	C300.252197,520.937134 374.488953,520.949646 448.725647,521.017395 
	C450.805206,521.019287 452.884216,521.611023 454.963501,521.927673 
	C377.423706,521.959167 299.883942,521.998840 222.344147,522.012756 
	C211.703293,522.014648 201.062424,521.888672 190.200714,521.446472 
z"/>
<path fill="#608C64" opacity="1.000000" stroke="none" 
	d="
M455.345032,522.005127 
	C452.884216,521.611023 450.805206,521.019287 448.725647,521.017395 
	C374.488953,520.949646 300.252197,520.937134 225.540619,520.733643 
	C225.065750,520.550354 225.073380,520.200684 225.073380,520.200684 
	C279.677612,520.140930 334.281830,520.058228 388.886078,520.031860 
	C412.858795,520.020264 436.831573,520.123352 461.030762,520.365234 
	C460.186279,521.009460 459.115356,521.462830 458.044464,521.916138 
	C457.271851,521.971680 456.499207,522.027161 455.345032,522.005127 
z"/>
<path fill="#7EC588" opacity="1.000000" stroke="none" 
	d="
M297.902618,189.160370 
	C327.137787,189.110641 356.372955,189.050049 385.608124,189.055344 
	C386.654816,189.055542 387.701355,189.706421 388.896729,190.416122 
	C362.997253,190.859650 336.949036,190.943832 310.900787,191.019623 
	C306.917847,191.031204 302.934753,191.004074 298.460632,190.655991 
	C297.947174,189.931549 297.924896,189.545944 297.902618,189.160370 
z"/>
<path fill="#6EA677" opacity="1.000000" stroke="none" 
	d="
M297.443024,189.138153 
	C297.924896,189.545944 297.947174,189.931549 297.995636,190.606567 
	C288.979797,190.924347 279.937805,190.952698 270.433716,190.592621 
	C269.980988,189.790283 269.990387,189.376389 269.999817,188.962494 
	C278.994354,189.013641 287.988892,189.064804 297.443024,189.138153 
z"/>
<path fill="#A1FAAB" opacity="1.000000" stroke="none" 
	d="
M258.872681,200.669907 
	C258.198059,200.562225 257.061646,200.126724 257.057495,199.680740 
	C256.958282,188.964554 256.980225,178.247253 257.591461,167.439392 
	C257.870422,168.762756 258.149353,170.086136 258.616974,171.695175 
	C258.850128,173.707718 258.894623,175.434586 258.716797,177.760040 
	C258.597748,178.905914 258.701019,179.453171 258.804291,180.000443 
	C258.848785,180.756134 258.893280,181.511810 258.663757,182.993362 
	C258.528931,188.810654 258.668152,193.902100 258.807343,198.993530 
	C258.851013,199.441422 258.894684,199.889297 258.872681,200.669907 
z"/>
<path fill="#7EC588" opacity="1.000000" stroke="none" 
	d="
M479.361145,520.937256 
	C479.339447,520.334045 479.595642,519.569702 480.098938,519.334778 
	C486.143555,516.513611 492.224792,513.770813 498.665588,511.014099 
	C493.940399,516.923523 486.916290,519.106140 479.361145,520.937256 
z"/>
<path fill="#6EA677" opacity="1.000000" stroke="none" 
	d="
M223.093170,221.368118 
	C229.815552,221.539154 236.646530,222.065659 243.749207,222.844604 
	C236.826889,226.494232 229.908218,225.717163 223.093170,221.368118 
z"/>
<path fill="#84C88B" opacity="1.000000" stroke="none" 
	d="
M397.378418,189.788773 
	C396.965454,183.528030 396.978271,177.350357 396.969452,170.722260 
	C397.429688,170.300217 398.334290,170.337402 398.333923,170.355743 
	C398.198273,176.861954 398.000641,183.366882 397.378418,189.788773 
z"/>
<path fill="#7CBD84" opacity="1.000000" stroke="none" 
	d="
M458.508240,521.951660 
	C459.115356,521.462830 460.186279,521.009460 461.480499,520.375671 
	C466.263885,520.330688 470.823975,520.466125 475.710693,520.858337 
	C470.348877,521.405701 464.660461,521.696411 458.508240,521.951660 
z"/>
<path fill="#7CBD84" opacity="1.000000" stroke="none" 
	d="
M154.107697,490.330811 
	C156.463806,494.382751 158.737869,498.814270 160.997940,503.621765 
	C158.664520,499.568634 156.345093,495.139526 154.107697,490.330811 
z"/>
<path fill="#7CBD84" opacity="1.000000" stroke="none" 
	d="
M173.107147,515.338379 
	C177.917404,516.732239 182.835449,518.464294 187.897644,520.510986 
	C183.099487,519.109314 178.157211,517.392944 173.107147,515.338379 
z"/>
<path fill="#84C88B" opacity="1.000000" stroke="none" 
	d="
M269.695038,170.297089 
	C269.870758,174.653931 269.683289,179.015396 269.230225,183.692932 
	C269.087036,179.439896 269.209442,174.870804 269.695038,170.297089 
z"/>
<path fill="#92E69D" opacity="1.000000" stroke="none" 
	d="
M258.892883,198.534332 
	C258.668152,193.902100 258.528931,188.810654 258.597015,183.367310 
	C258.862335,188.035324 258.920349,193.055222 258.892883,198.534332 
z"/>
<path fill="#7CBD84" opacity="1.000000" stroke="none" 
	d="
M166.098618,510.326965 
	C168.311081,511.437683 170.600800,512.881897 172.945129,514.663269 
	C170.725113,513.553772 168.450485,512.107117 166.098618,510.326965 
z"/>
<path fill="#7CBD84" opacity="1.000000" stroke="none" 
	d="
M153.056183,480.377197 
	C153.551392,482.130249 153.958145,484.298309 154.125397,486.754150 
	C153.579819,484.958679 153.273773,482.875427 153.056183,480.377197 
z"/>
<path fill="#7CBD84" opacity="1.000000" stroke="none" 
	d="
M161.009521,504.356812 
	C162.356857,505.423767 163.712234,506.833374 165.045288,508.601257 
	C163.687836,507.539490 162.352692,506.119476 161.009521,504.356812 
z"/>
<path fill="#7EC588" opacity="1.000000" stroke="none" 
	d="
M507.343750,500.906982 
	C507.709503,499.379120 508.415436,497.756226 509.451569,496.046204 
	C509.082489,497.576660 508.383240,499.194305 507.343750,500.906982 
z"/>
<path fill="#84C88B" opacity="1.000000" stroke="none" 
	d="
M269.967285,188.683044 
	C269.990387,189.376389 269.980988,189.790283 269.968689,190.514465 
	C269.476379,189.649963 268.987000,188.475174 268.787628,187.162048 
	C269.363342,187.483688 269.649048,187.943649 269.967285,188.683044 
z"/>
<path fill="#7EC588" opacity="1.000000" stroke="none" 
	d="
M503.328918,506.909637 
	C503.463287,506.058838 503.915222,505.107544 504.702942,504.092255 
	C504.574677,504.955231 504.110565,505.882202 503.328918,506.909637 
z"/>
<path fill="#7EC588" opacity="1.000000" stroke="none" 
	d="
M505.346680,503.941986 
	C505.464294,503.071350 505.899170,502.105865 506.668121,501.071899 
	C506.556122,501.951263 506.110046,502.899200 505.346680,503.941986 
z"/>
<path fill="#6EA677" opacity="1.000000" stroke="none" 
	d="
M221.087845,220.393021 
	C221.639969,220.220276 222.296204,220.342163 222.970337,220.740143 
	C222.389465,220.906723 221.790710,220.797180 221.087845,220.393021 
z"/>
<path fill="#92E69D" opacity="1.000000" stroke="none" 
	d="
M258.888672,179.673248 
	C258.701019,179.453171 258.597748,178.905914 258.650024,178.187195 
	C258.861420,178.459167 258.917267,178.902603 258.888672,179.673248 
z"/>
<path fill="#7EC588" opacity="1.000000" stroke="none" 
	d="
M500.278809,509.983398 
	C500.208527,509.764069 500.405090,509.499756 500.830933,509.135193 
	C500.888672,509.336090 500.717163,509.637299 500.278809,509.983398 
z"/>
<path fill="#7CBD84" opacity="1.000000" stroke="none" 
	d="
M165.074738,509.245514 
	C165.388046,509.041138 165.655197,509.218079 165.925720,509.743744 
	C165.705963,509.820953 165.405792,509.665741 165.074738,509.245514 
z"/>
<path fill="#7EC588" opacity="1.000000" stroke="none" 
	d="
M501.300720,509.004700 
	C501.137299,508.728088 501.328613,508.462341 501.831360,508.148682 
	C501.891296,508.341614 501.728882,508.646515 501.300720,509.004700 
z"/>
<path fill="#7EC588" opacity="1.000000" stroke="none" 
	d="
M502.296875,507.986145 
	C502.113739,507.714691 502.290253,507.441895 502.790009,507.122894 
	C502.858826,507.313293 502.706573,507.615997 502.296875,507.986145 
z"/>
<path fill="#7EC588" opacity="1.000000" stroke="none" 
	d="
M510.268921,494.966919 
	C510.002960,494.841888 509.994110,494.660309 510.009338,494.207092 
	C510.197632,494.260406 510.361816,494.585419 510.268921,494.966919 
z"/>
<path fill="#000000" opacity="1.000000" stroke="none" 
	d="
M184.969330,498.201904 
	C184.506058,497.862762 184.042801,497.523621 183.252411,496.802246 
	C182.608536,496.342316 182.291779,496.264587 181.975006,496.186890 
	C180.852707,495.200317 179.730408,494.213715 178.294464,492.779968 
	C177.316895,491.563721 176.652985,490.794556 175.989059,490.025421 
	C175.951492,489.858429 175.913925,489.691467 175.888550,489.011505 
	C175.601837,488.332214 175.302917,488.165985 175.003998,487.999756 
	C175.004013,487.999725 174.877380,487.526245 174.921387,486.867249 
	C174.598572,482.129578 174.231735,478.050903 173.913940,473.737610 
	C173.962982,473.502930 173.868591,473.032867 173.946320,472.585205 
	C173.975601,469.416473 173.927139,466.695435 173.926712,463.738312 
	C173.974747,463.502258 173.878586,463.030182 173.951813,462.690277 
	C173.976334,461.891937 173.927628,461.433502 173.927246,460.738892 
	C173.975555,460.502716 173.882141,460.029694 173.958038,459.566895 
	C173.978317,454.391785 173.922699,449.679504 173.924942,444.577393 
	C173.941757,443.139862 173.900711,442.092102 173.936783,440.578613 
	C173.959595,433.396759 173.905289,426.680603 173.911438,419.601990 
	C173.932632,418.507751 173.893402,417.776062 173.931244,416.664154 
	C173.958282,415.513245 173.908203,414.742554 173.909546,413.737335 
	C173.960968,413.502838 173.865189,413.032379 173.941666,412.576843 
	C173.965546,408.735992 173.912964,405.350677 173.920227,401.545471 
	C173.941895,399.431305 173.903702,397.737030 173.941956,395.662842 
	C173.967865,394.513062 173.917313,393.743195 173.915497,392.738251 
	C173.964203,392.503174 173.866333,392.033142 173.942520,391.584869 
	C173.964966,388.412689 173.911224,385.688751 173.915558,382.602112 
	C173.934586,381.507843 173.895569,380.776337 173.934265,379.607483 
	C173.960556,377.102203 173.909103,375.034271 173.915070,372.647461 
	C173.934006,371.899933 173.895508,371.471344 173.934265,370.577637 
	C173.964554,364.398224 173.917542,358.683929 173.929016,352.649506 
	C173.948410,351.899078 173.909317,351.468781 173.944214,350.573181 
	C173.967300,344.395966 173.916397,338.684052 173.914566,332.737183 
	C173.963638,332.502258 173.866135,332.032257 173.940521,331.691772 
	C173.965302,330.891907 173.915680,330.432587 173.914612,329.738220 
	C173.963165,329.503235 173.862549,329.033997 173.938065,328.568787 
	C173.965698,321.725281 173.917816,315.347046 173.929291,308.605103 
	C173.948990,307.507690 173.909363,306.773987 173.944550,305.576660 
	C173.969086,300.397827 173.918839,295.682617 173.927216,290.537384 
	C173.947876,288.084656 173.909927,286.061920 173.940491,283.619995 
	C173.960632,281.789825 173.912231,280.378876 173.919495,278.600189 
	C173.941635,277.490692 173.908096,276.748993 173.953156,275.549011 
	C174.043259,273.258331 174.063354,271.425873 174.064697,269.593445 
	C174.070160,262.060760 174.068069,262.055786 181.565948,262.054840 
	C273.360077,262.043182 365.154175,262.031616 456.948303,262.024445 
	C467.110626,262.023651 477.274689,262.160980 487.434265,262.000488 
	C490.811279,261.947174 492.541565,262.835510 492.075714,266.471619 
	C491.700623,269.399414 491.154297,272.341064 491.160919,275.275482 
	C491.183838,285.411469 491.507416,295.546600 491.550079,305.682739 
	C491.671204,334.478149 491.762909,363.273895 491.747406,392.069427 
	C491.743073,400.145233 491.094727,408.222748 491.160797,416.296021 
	C491.243408,426.388397 491.987122,436.476593 492.015717,446.567810 
	C492.039093,454.800110 491.473602,463.036163 491.089050,471.266846 
	C490.796936,477.517914 490.378693,483.763092 490.016571,490.010895 
	C490.016571,490.010895 490.000000,490.000000 489.672424,490.102478 
	C484.709747,496.665497 478.514099,500.056885 470.465240,500.014099 
	C468.970886,500.006165 467.473358,500.593658 465.517853,500.980988 
	C460.378479,500.987061 455.698578,500.918518 450.857819,500.515259 
	C449.120880,500.411224 447.544769,500.641876 445.509644,500.958008 
	C439.379547,500.999725 433.708405,500.955963 427.814453,500.536621 
	C400.735931,500.107880 373.880188,500.048035 347.024475,500.039642 
	C346.342285,500.039429 345.659912,500.605133 344.520233,500.985107 
	C339.712006,501.024353 335.361206,500.985382 330.785919,500.575500 
	C301.383759,500.136322 272.206055,500.062042 243.028320,500.037354 
	C242.343597,500.036774 241.658417,500.593842 240.518433,500.972687 
	C236.050980,500.992554 232.038559,500.930542 227.863983,500.532196 
	C226.124527,500.422729 224.547272,500.649597 222.653397,500.960510 
	C221.905106,500.998779 221.473419,500.953003 220.915527,500.595642 
	C219.848740,500.477997 218.908157,500.671936 217.508942,500.953552 
	C211.377274,500.972351 205.704224,500.903503 199.809738,500.471863 
	C196.376831,500.137939 193.165344,500.166870 189.953857,500.195801 
	C188.882904,499.825043 187.811935,499.454315 186.332184,498.761963 
	C185.605362,498.360870 185.287338,498.281372 184.969330,498.201904 
M444.831268,329.115692 
	C445.902130,329.727478 446.972961,330.339233 448.242249,331.622620 
	C451.200928,334.200714 454.049042,337.063080 458.732117,335.606995 
	C458.904510,333.203186 459.069427,330.755096 459.257355,328.308807 
	C460.033844,318.201019 460.817291,308.093781 461.780823,297.328217 
	C461.822754,296.874939 461.864685,296.421661 462.699951,295.704132 
	C462.695587,293.463318 462.691223,291.222534 462.865021,288.472351 
	C462.903564,288.296661 462.942139,288.120941 463.481293,287.879120 
	C463.317017,287.596863 463.152740,287.314636 462.897034,286.514252 
	C462.842194,286.347626 462.787384,286.181030 462.683685,285.299286 
	C460.588470,282.651459 458.231964,282.748749 455.244659,283.982880 
	C450.439880,285.967834 445.434723,287.471405 440.501984,289.142151 
	C431.613190,292.152893 422.642487,294.941833 413.855804,298.224396 
	C410.152863,299.607788 410.285797,301.487030 413.542908,304.069794 
	C417.498352,307.206329 421.403351,310.406494 425.983521,314.107025 
	C410.365356,333.436188 394.987579,352.467834 379.416046,371.739258 
	C378.244598,370.688354 377.607239,370.199158 377.066895,369.619507 
	C368.060913,359.959381 359.136749,350.221741 350.041504,340.646545 
	C345.405151,335.765533 340.980591,335.901093 336.632202,341.046265 
	C332.301727,346.170197 328.210205,351.502319 324.145264,356.843170 
	C313.152039,371.286896 302.228607,385.783691 291.112946,400.476929 
	C290.183807,399.626526 289.562897,399.114807 289.006531,398.540558 
	C280.160675,389.411255 271.389252,380.208588 262.456757,371.164948 
	C257.736786,366.386261 252.190796,366.999298 248.099319,372.035614 
	C238.008270,384.457001 227.698166,396.700317 217.599365,409.115479 
	C214.228012,413.260132 211.230484,417.708832 207.538651,422.158142 
	C207.365112,422.460754 207.191574,422.763397 206.498840,423.131958 
	C206.355865,423.429077 206.212906,423.726196 206.007919,424.007477 
	C206.007919,424.007477 206.032318,424.066681 205.317184,424.320709 
	C204.581635,425.360657 203.241333,426.382690 203.209930,427.443512 
	C203.023697,433.734467 203.069458,440.036377 203.243668,446.328857 
	C203.266144,447.140656 204.482086,447.919342 205.145172,448.713348 
	C206.043213,447.791992 206.941254,446.870636 208.452148,445.877899 
	C208.973099,445.263489 209.494064,444.649109 210.524078,443.895508 
	C210.684082,443.598114 210.844086,443.300690 211.518875,442.857452 
	C211.672028,442.550659 211.825180,442.243835 212.623413,441.749817 
	C214.066971,439.827698 215.510544,437.905579 216.997330,435.999847 
	C216.997330,435.999847 216.984436,435.955048 217.704132,435.938171 
	C230.315323,420.703522 242.926529,405.468842 255.662445,390.083527 
	C256.863892,390.983582 258.301361,391.794922 259.405273,392.930573 
	C266.562225,400.293427 273.648224,407.725189 280.750519,415.141083 
	C281.206207,415.616913 281.642120,416.121277 282.022491,416.658234 
	C287.352844,424.182251 294.266876,424.663177 299.897461,417.507172 
	C308.071289,407.118988 315.953766,396.501312 323.946777,385.971069 
	C329.643005,378.466705 335.345551,370.966797 340.986969,363.421326 
	C343.435944,360.145752 345.642792,360.314575 348.069702,363.455994 
	C349.872009,365.788879 351.851471,367.991150 353.832977,370.178284 
	C360.039520,377.028900 366.321472,383.811462 372.500397,390.686768 
	C376.159210,394.757904 383.001495,394.910675 386.794342,390.546661 
	C391.954742,384.609161 396.916351,378.493256 401.822021,372.341309 
	C408.920013,363.440094 415.937531,354.473633 422.900543,345.466339 
	C427.350983,339.709259 431.641144,333.828308 436.675507,327.764801 
	C439.749298,323.590088 441.873810,327.900146 444.831268,329.115692 
z"/>
<path fill="#7EBA83" opacity="1.000000" stroke="none" 
	d="
M490.364807,489.928345 
	C490.378693,483.763092 490.796936,477.517914 491.089050,471.266846 
	C491.473602,463.036163 492.039093,454.800110 492.015717,446.567810 
	C491.987122,436.476593 491.243408,426.388397 491.160797,416.296021 
	C491.094727,408.222748 491.743073,400.145233 491.747406,392.069427 
	C491.762909,363.273895 491.671204,334.478149 491.550079,305.682739 
	C491.507416,295.546600 491.183838,285.411469 491.160919,275.275482 
	C491.154297,272.341064 491.700623,269.399414 492.075714,266.471619 
	C492.541565,262.835510 490.811279,261.947174 487.434265,262.000488 
	C477.274689,262.160980 467.110626,262.023651 456.948303,262.024445 
	C365.154175,262.031616 273.360077,262.043182 181.565948,262.054840 
	C174.068069,262.055786 174.070160,262.060760 174.064697,269.593445 
	C174.063354,271.425873 174.043259,273.258331 173.733643,275.529541 
	C173.435486,275.968323 172.995728,275.938263 172.989365,275.624023 
	C172.695618,274.559784 172.408249,273.809784 172.120865,273.059753 
	C172.094818,257.723297 170.232361,260.146332 184.958649,260.136017 
	C286.068420,260.065155 387.178345,260.129395 488.288086,260.045135 
	C492.357330,260.041748 494.159729,260.675140 494.150604,265.419830 
	C494.014160,336.213135 494.133881,407.006958 493.951202,477.800049 
	C493.940826,481.818024 491.840607,485.830658 490.364807,489.928345 
z"/>
<path fill="#7CBD84" opacity="1.000000" stroke="none" 
	d="
M172.088593,273.521057 
	C172.408249,273.809784 172.695618,274.559784 172.998413,275.952240 
	C173.297165,277.385773 173.580505,278.176849 173.863831,278.967957 
	C173.912231,280.378876 173.960632,281.789825 173.725754,283.914856 
	C173.584518,286.741791 173.726562,288.854584 173.868591,290.967407 
	C173.918839,295.682617 173.969086,300.397827 173.752319,305.782745 
	C173.613510,307.291229 173.741714,308.130005 173.869934,308.968781 
	C173.917816,315.347046 173.965698,321.725281 173.835815,328.672180 
	C173.514832,329.525146 173.584167,329.769287 173.866058,329.973236 
	C173.915680,330.432587 173.965302,330.891907 173.837646,331.794861 
	C173.515411,332.522522 173.583786,332.767059 173.865494,332.972137 
	C173.916397,338.684052 173.967300,344.395966 173.776031,350.734558 
	C173.646088,351.897369 173.758316,352.433472 173.870544,352.969604 
	C173.917542,358.683929 173.964554,364.398224 173.772247,370.740723 
	C173.641159,371.901367 173.749405,372.433868 173.857635,372.966370 
	C173.909103,375.034271 173.960556,377.102203 173.749634,379.815918 
	C173.610672,381.296082 173.734085,382.130463 173.857498,382.964844 
	C173.911224,385.688751 173.964966,388.412689 173.839737,391.687988 
	C173.516479,392.523712 173.585144,392.768341 173.866776,392.973328 
	C173.917313,393.743195 173.967865,394.513062 173.734680,395.945557 
	C173.587448,398.393921 173.723923,400.179626 173.860382,401.965363 
	C173.912964,405.350677 173.965546,408.735992 173.839203,412.679443 
	C173.515182,413.519470 173.581131,413.764221 173.858124,413.971832 
	C173.908203,414.742554 173.958282,415.513245 173.748001,416.872925 
	C173.608765,418.296082 173.729874,419.130280 173.850998,419.964478 
	C173.905289,426.680603 173.959595,433.396759 173.739746,440.819702 
	C173.599426,442.673401 173.733261,443.820312 173.867096,444.967224 
	C173.922699,449.679504 173.978317,454.391785 173.850464,459.669067 
	C173.515228,460.523285 173.585876,460.770264 173.878922,460.975067 
	C173.927628,461.433502 173.976334,461.891937 173.844971,462.792847 
	C173.514709,463.524323 173.585953,463.770691 173.878677,463.974365 
	C173.927139,466.695435 173.975601,469.416473 173.843277,472.687866 
	C173.517181,473.521545 173.584656,473.766235 173.864883,473.972260 
	C174.231735,478.050903 174.598572,482.129578 174.857193,486.630737 
	C173.836212,484.219666 172.132141,481.387634 172.126587,478.552277 
	C171.992996,410.362518 172.041107,342.172424 172.088593,273.521057 
z"/>
<path fill="#A1FAAB" opacity="1.000000" stroke="none" 
	d="
M451.018646,500.849976 
	C455.698578,500.918518 460.378479,500.987061 465.811462,501.239380 
	C468.697083,501.651428 470.829620,501.879761 472.962158,502.108093 
	C471.030884,502.406769 469.099731,502.965790 467.168304,502.966705 
	C377.307007,503.008057 287.445709,503.003540 197.584381,502.978241 
	C195.945557,502.977783 194.306808,502.662659 192.763428,502.218201 
	C195.249603,501.572876 197.640381,501.203796 200.031158,500.834686 
	C205.704224,500.903503 211.377274,500.972351 217.716278,501.170197 
	C219.268738,501.168518 220.155228,501.037842 221.041733,500.907227 
	C221.473419,500.953003 221.905106,500.998779 222.913727,501.193848 
	C225.002487,501.184967 226.514328,501.026733 228.026154,500.868530 
	C232.038559,500.930542 236.050980,500.992554 240.843445,501.232178 
	C242.762070,501.575470 243.900513,501.884613 245.039246,501.885742 
	C272.281219,501.912872 299.523224,501.921356 326.765076,501.866211 
	C328.180786,501.863342 329.595306,501.266693 331.010376,500.946472 
	C335.361206,500.985382 339.712006,501.024353 344.841705,501.249695 
	C346.593292,501.598602 347.565948,501.902405 348.538788,501.903137 
	C373.623260,501.921997 398.707764,501.925293 423.792114,501.859802 
	C425.207977,501.856110 426.622284,501.242096 428.037292,500.912201 
	C433.708405,500.955963 439.379547,500.999725 445.771301,501.191071 
	C448.000854,501.175720 449.509735,501.012848 451.018646,500.849976 
z"/>
<path fill="#7EBA83" opacity="1.000000" stroke="none" 
	d="
M473.345520,502.051147 
	C470.829620,501.879761 468.697083,501.651428 466.270935,501.164734 
	C467.473358,500.593658 468.970886,500.006165 470.465240,500.014099 
	C478.514099,500.056885 484.709747,496.665497 489.678223,490.110413 
	C488.367371,492.447510 487.220032,495.618469 484.961609,497.136200 
	C481.632629,499.373444 477.512207,500.433044 473.345520,502.051147 
z"/>
<path fill="#6EA677" opacity="1.000000" stroke="none" 
	d="
M224.602310,520.137939 
	C225.073380,520.200684 225.065750,520.550354 225.077713,520.723999 
	C214.674957,520.794678 204.260223,520.691650 193.519012,520.377502 
	C203.505432,520.135925 213.818344,520.105530 224.602310,520.137939 
z"/>
<path fill="#7EBA83" opacity="1.000000" stroke="none" 
	d="
M199.809738,500.471863 
	C197.640381,501.203796 195.249603,501.572876 192.430344,501.971985 
	C191.380280,501.585754 190.758682,501.169495 190.045471,500.474518 
	C193.165344,500.166870 196.376831,500.137939 199.809738,500.471863 
z"/>
<path fill="#7CBD84" opacity="1.000000" stroke="none" 
	d="
M175.972504,490.370117 
	C176.652985,490.794556 177.316895,491.563721 177.997162,492.664062 
	C177.327652,492.235138 176.641800,491.475006 175.972504,490.370117 
z"/>
<path fill="#7CBD84" opacity="1.000000" stroke="none" 
	d="
M185.111191,498.382446 
	C185.287338,498.281372 185.605362,498.360870 185.987885,498.707916 
	C185.730011,498.946350 185.463577,498.808868 185.111191,498.382446 
z"/>
<path fill="#7CBD84" opacity="1.000000" stroke="none" 
	d="
M182.116211,496.363953 
	C182.291779,496.264587 182.608536,496.342316 182.983093,496.687073 
	C182.723053,496.923950 182.461884,496.786255 182.116211,496.363953 
z"/>
<path fill="#7CBD84" opacity="1.000000" stroke="none" 
	d="
M175.059647,488.214783 
	C175.302917,488.165985 175.601837,488.332214 175.830399,488.761475 
	C175.481491,488.895264 175.266571,488.697021 175.059647,488.214783 
z"/>
<path fill="#000000" opacity="1.000000" stroke="none" 
	d="
M436.145752,198.666290 
	C436.298401,202.331741 434.956116,204.232513 431.576202,204.189575 
	C428.040131,204.144638 427.985291,201.549698 427.981445,199.023987 
	C427.967773,190.064682 427.965942,181.105286 427.999237,172.146057 
	C428.009949,169.268906 428.222412,166.131912 431.978851,166.003998 
	C436.327576,165.855896 436.118164,169.232315 436.107971,172.318741 
	C436.079529,180.946075 436.127106,189.573639 436.145752,198.666290 
z"/>
<path fill="#000000" opacity="1.000000" stroke="none" 
	d="
M238.990051,168.671204 
	C239.097809,179.218567 238.921341,189.340195 239.187485,199.450180 
	C239.277008,202.850540 237.692474,204.929810 235.003357,204.697586 
	C233.520874,204.569580 231.213852,201.510162 231.136185,199.692886 
	C230.739944,190.421844 230.787292,181.119812 231.077209,171.841064 
	C231.139145,169.859589 232.502472,167.551559 233.989838,166.176788 
	C234.525711,165.681473 237.187286,167.485947 238.990051,168.671204 
z"/>
<path fill="#8FE199" opacity="1.000000" stroke="none" 
	d="
M436.003174,328.002899 
	C431.641144,333.828308 427.350983,339.709259 422.900543,345.466339 
	C415.937531,354.473633 408.920013,363.440094 401.822021,372.341309 
	C396.916351,378.493256 391.954742,384.609161 386.794342,390.546661 
	C383.001495,394.910675 376.159210,394.757904 372.500397,390.686768 
	C366.321472,383.811462 360.039520,377.028900 353.832977,370.178284 
	C351.851471,367.991150 349.872009,365.788879 348.069702,363.455994 
	C345.642792,360.314575 343.435944,360.145752 340.986969,363.421326 
	C335.345551,370.966797 329.643005,378.466705 323.946777,385.971069 
	C315.953766,396.501312 308.071289,407.118988 299.897461,417.507172 
	C294.266876,424.663177 287.352844,424.182251 282.022491,416.658234 
	C281.642120,416.121277 281.206207,415.616913 280.750519,415.141083 
	C273.648224,407.725189 266.562225,400.293427 259.405273,392.930573 
	C258.301361,391.794922 256.863892,390.983582 255.662445,390.083527 
	C242.926529,405.468842 230.315323,420.703522 217.389679,435.591309 
	C216.676727,433.645264 216.278214,432.046143 215.879700,430.446991 
	C210.336105,432.066162 209.833664,428.741364 209.876038,424.552429 
	C209.884521,423.714020 208.697723,422.863464 208.062073,422.018524 
	C211.230484,417.708832 214.228012,413.260132 217.599365,409.115479 
	C227.698166,396.700317 238.008270,384.457001 248.099319,372.035614 
	C252.190796,366.999298 257.736786,366.386261 262.456757,371.164948 
	C271.389252,380.208588 280.160675,389.411255 289.006531,398.540558 
	C289.562897,399.114807 290.183807,399.626526 291.112946,400.476929 
	C302.228607,385.783691 313.152039,371.286896 324.145264,356.843170 
	C328.210205,351.502319 332.301727,346.170197 336.632202,341.046265 
	C340.980591,335.901093 345.405151,335.765533 350.041504,340.646545 
	C359.136749,350.221741 368.060913,359.959381 377.066895,369.619507 
	C377.607239,370.199158 378.244598,370.688354 379.416046,371.739258 
	C394.987579,352.467834 410.365356,333.436188 425.983521,314.107025 
	C421.403351,310.406494 417.498352,307.206329 413.542908,304.069794 
	C410.285797,301.487030 410.152863,299.607788 413.855804,298.224396 
	C422.642487,294.941833 431.613190,292.152893 440.501984,289.142151 
	C445.434723,287.471405 450.439880,285.967834 455.244659,283.982880 
	C458.231964,282.748749 460.588470,282.651459 462.339966,285.634766 
	C456.732361,284.242767 452.623901,287.162170 446.694244,289.285522 
	C451.062195,293.798157 454.596863,297.449860 458.176270,301.147827 
	C459.756592,299.687744 460.677368,298.837036 461.598145,297.986328 
	C460.817291,308.093781 460.033844,318.201019 459.257355,328.308807 
	C459.069427,330.755096 458.904510,333.203186 458.732117,335.606995 
	C454.049042,337.063080 451.200928,334.200714 448.209320,331.208618 
	C448.176392,330.794647 448.308838,330.638214 448.628693,330.697113 
	C449.227051,329.392853 450.076416,327.807709 449.652466,326.717743 
	C448.988892,325.011627 447.464386,323.640381 446.304535,322.127289 
	C446.683411,321.595886 447.062256,321.064453 447.441132,320.533051 
	C450.678223,322.483032 453.915314,324.432983 457.094269,326.347931 
	C457.584961,323.797272 458.231995,321.252838 458.498688,318.669159 
	C458.615082,317.541779 458.193298,316.189331 457.594788,315.191681 
	C456.193634,312.856140 454.352295,310.776489 453.032166,308.402496 
	C451.348389,305.374664 450.815735,300.839081 448.334625,299.310272 
	C443.747131,296.483521 438.188446,294.330170 432.871246,293.896667 
	C429.107788,293.589844 425.075867,296.575714 420.276611,298.435547 
	C421.985504,299.828857 423.001282,300.783203 424.138092,301.560638 
	C427.762085,304.039032 430.567444,307.747955 428.082886,311.556854 
	C423.606689,318.419037 427.450104,322.317474 431.831787,326.360443 
	C432.740204,327.198639 434.373566,327.251221 435.755371,327.750183 
	C435.837952,327.834442 436.003174,328.002899 436.003174,328.002899 
M417.896088,298.356506 
	C417.896088,298.356506 417.986664,298.658844 417.986664,298.658844 
	C417.986664,298.658844 418.085480,298.358490 417.896088,298.356506 
z"/>
<path fill="#7EBA83" opacity="1.000000" stroke="none" 
	d="
M330.785919,500.575500 
	C329.595306,501.266693 328.180786,501.863342 326.765076,501.866211 
	C299.523224,501.921356 272.281219,501.912872 245.039246,501.885742 
	C243.900513,501.884613 242.762070,501.575470 241.298477,501.150330 
	C241.658417,500.593842 242.343597,500.036774 243.028320,500.037354 
	C272.206055,500.062042 301.383759,500.136322 330.785919,500.575500 
z"/>
<path fill="#98EDA3" opacity="1.000000" stroke="none" 
	d="
M207.800354,422.088318 
	C208.697723,422.863464 209.884521,423.714020 209.876038,424.552429 
	C209.833664,428.741364 210.336105,432.066162 215.879700,430.446991 
	C216.278214,432.046143 216.676727,433.645264 217.029846,435.599731 
	C216.984436,435.955048 216.997330,435.999847 216.633240,436.043518 
	C214.838867,438.037170 213.408600,439.987122 211.978333,441.937042 
	C211.825180,442.243835 211.672028,442.550659 211.052811,443.056335 
	C210.328049,443.465088 210.137466,443.724884 210.015015,444.034698 
	C209.494064,444.649109 208.973099,445.263489 207.759155,445.866699 
	C206.392120,444.715942 205.121262,443.564667 205.143387,442.438812 
	C205.263794,436.311310 205.702896,430.190063 206.032318,424.066681 
	C206.032318,424.066681 206.007919,424.007477 206.235916,423.897827 
	C206.709763,423.594360 206.894470,423.353668 207.018036,423.066010 
	C207.191574,422.763397 207.365112,422.460754 207.800354,422.088318 
z"/>
<path fill="#7EBA83" opacity="1.000000" stroke="none" 
	d="
M427.814453,500.536621 
	C426.622284,501.242096 425.207977,501.856110 423.792114,501.859802 
	C398.707764,501.925293 373.623260,501.921997 348.538788,501.903137 
	C347.565948,501.902405 346.593292,501.598602 345.299103,501.171478 
	C345.659912,500.605133 346.342285,500.039429 347.024475,500.039642 
	C373.880188,500.048035 400.735931,500.107880 427.814453,500.536621 
z"/>
<path fill="#98EDA3" opacity="1.000000" stroke="none" 
	d="
M461.689484,297.657257 
	C460.677368,298.837036 459.756592,299.687744 458.176270,301.147827 
	C454.596863,297.449860 451.062195,293.798157 446.694244,289.285522 
	C452.623901,287.162170 456.732361,284.242767 462.364380,285.992371 
	C462.787384,286.181030 462.842194,286.347626 462.935883,287.001465 
	C462.974731,287.488678 462.980713,287.945251 462.980713,287.945251 
	C462.942139,288.120941 462.903564,288.296661 462.457825,288.874023 
	C462.002594,291.506592 461.954590,293.737488 461.906586,295.968384 
	C461.864685,296.421661 461.822754,296.874939 461.689484,297.657257 
z"/>
<path fill="#8FE199" opacity="1.000000" stroke="none" 
	d="
M205.674744,424.193695 
	C205.702896,430.190063 205.263794,436.311310 205.143387,442.438812 
	C205.121262,443.564667 206.392120,444.715942 207.452728,445.902344 
	C206.941254,446.870636 206.043213,447.791992 205.145172,448.713379 
	C204.482086,447.919342 203.266144,447.140656 203.243668,446.328857 
	C203.069458,440.036377 203.023697,433.734467 203.209930,427.443512 
	C203.241333,426.382690 204.581635,425.360657 205.674744,424.193695 
z"/>
<path fill="#8FE199" opacity="1.000000" stroke="none" 
	d="
M444.398987,328.628906 
	C441.873810,327.900146 439.749298,323.590088 436.339355,327.883850 
	C436.003174,328.002899 435.837952,327.834442 435.858582,327.424347 
	C436.735931,325.403229 437.592712,323.792206 439.067200,321.019592 
	C441.570709,323.844849 443.351959,325.854980 444.948120,328.054626 
	C444.641693,328.372406 444.520355,328.500641 444.398987,328.628906 
z"/>
<path fill="#8FE199" opacity="1.000000" stroke="none" 
	d="
M212.300873,441.843445 
	C213.408600,439.987122 214.838867,438.037170 216.611618,436.035339 
	C215.510544,437.905579 214.066971,439.827698 212.300873,441.843445 
z"/>
<path fill="#8FE199" opacity="1.000000" stroke="none" 
	d="
M462.303284,295.836243 
	C461.954590,293.737488 462.002594,291.506592 462.368713,289.128723 
	C462.691223,291.222534 462.695587,293.463318 462.303284,295.836243 
z"/>
<path fill="#7EBA83" opacity="1.000000" stroke="none" 
	d="
M227.863983,500.532166 
	C226.514328,501.026733 225.002487,501.184967 223.230331,501.109802 
	C224.547272,500.649597 226.124527,500.422729 227.863983,500.532166 
z"/>
<path fill="#7EBA83" opacity="1.000000" stroke="none" 
	d="
M450.857819,500.515289 
	C449.509735,501.012848 448.000854,501.175720 446.230286,501.105591 
	C447.544769,500.641876 449.120880,500.411224 450.857819,500.515289 
z"/>
<path fill="#86D192" opacity="1.000000" stroke="none" 
	d="
M173.927216,290.537384 
	C173.726562,288.854584 173.584518,286.741791 173.657227,284.334106 
	C173.909927,286.061920 173.947876,288.084656 173.927216,290.537384 
z"/>
<path fill="#8FE199" opacity="1.000000" stroke="none" 
	d="
M448.110107,330.872803 
	C446.972961,330.339233 445.902130,329.727478 444.615112,328.872314 
	C444.520355,328.500641 444.641693,328.372406 445.250610,328.146484 
	C446.595062,328.911926 447.451965,329.775085 448.308838,330.638214 
	C448.308838,330.638214 448.176392,330.794647 448.110107,330.872803 
z"/>
<path fill="#86D192" opacity="1.000000" stroke="none" 
	d="
M173.920227,401.545471 
	C173.723923,400.179626 173.587448,398.393921 173.658234,396.325500 
	C173.903702,397.737030 173.941895,399.431305 173.920227,401.545471 
z"/>
<path fill="#7EBA83" opacity="1.000000" stroke="none" 
	d="
M220.915527,500.595642 
	C220.155228,501.037842 219.268738,501.168518 218.174896,501.082520 
	C218.908157,500.671936 219.848740,500.477997 220.915527,500.595642 
z"/>
<path fill="#86D192" opacity="1.000000" stroke="none" 
	d="
M173.924942,444.577393 
	C173.733261,443.820312 173.599426,442.673401 173.662628,441.285431 
	C173.900711,442.092102 173.941757,443.139862 173.924942,444.577393 
z"/>
<path fill="#86D192" opacity="1.000000" stroke="none" 
	d="
M173.915558,382.602112 
	C173.734085,382.130463 173.610672,381.296082 173.671906,380.253265 
	C173.895569,380.776337 173.934586,381.507843 173.915558,382.602112 
z"/>
<path fill="#86D192" opacity="1.000000" stroke="none" 
	d="
M173.919510,278.600189 
	C173.580505,278.176849 173.297165,277.385773 173.004791,276.266479 
	C172.995728,275.938263 173.435486,275.968323 173.655014,275.987793 
	C173.908096,276.748993 173.941635,277.490692 173.919510,278.600189 
z"/>
<path fill="#86D192" opacity="1.000000" stroke="none" 
	d="
M173.911438,419.601990 
	C173.729874,419.130280 173.608765,418.296082 173.670898,417.253113 
	C173.893402,417.776062 173.932632,418.507751 173.911438,419.601990 
z"/>
<path fill="#86D192" opacity="1.000000" stroke="none" 
	d="
M173.929260,308.605103 
	C173.741714,308.130005 173.613510,307.291229 173.677521,306.246338 
	C173.909363,306.773987 173.948990,307.507690 173.929260,308.605103 
z"/>
<path fill="#86D192" opacity="1.000000" stroke="none" 
	d="
M173.915070,372.647461 
	C173.749405,372.433868 173.641159,371.901367 173.694962,371.205811 
	C173.895508,371.471344 173.934006,371.899933 173.915070,372.647461 
z"/>
<path fill="#86D192" opacity="1.000000" stroke="none" 
	d="
M173.929016,352.649506 
	C173.758316,352.433472 173.646088,351.897369 173.702042,351.199829 
	C173.909317,351.468781 173.948410,351.899078 173.929016,352.649506 
z"/>
<path fill="#86D192" opacity="1.000000" stroke="none" 
	d="
M173.909546,413.737335 
	C173.581131,413.764221 173.515182,413.519470 173.762726,413.135010 
	C173.865189,413.032379 173.960968,413.502838 173.909546,413.737335 
z"/>
<path fill="#86D192" opacity="1.000000" stroke="none" 
	d="
M173.914566,332.737183 
	C173.583786,332.767059 173.515411,332.522522 173.763245,332.135376 
	C173.866135,332.032257 173.963638,332.502258 173.914566,332.737183 
z"/>
<path fill="#86D192" opacity="1.000000" stroke="none" 
	d="
M173.914612,329.738220 
	C173.584167,329.769287 173.514832,329.525146 173.760315,329.137421 
	C173.862549,329.033997 173.963165,329.503235 173.914612,329.738220 
z"/>
<path fill="#86D192" opacity="1.000000" stroke="none" 
	d="
M173.915497,392.738251 
	C173.585144,392.768341 173.516479,392.523712 173.763550,392.136261 
	C173.866333,392.033142 173.964203,392.503174 173.915497,392.738251 
z"/>
<path fill="#86D192" opacity="1.000000" stroke="none" 
	d="
M173.927246,460.738892 
	C173.585876,460.770264 173.515228,460.523285 173.774567,460.131897 
	C173.882141,460.029694 173.975555,460.502716 173.927246,460.738892 
z"/>
<path fill="#8FE199" opacity="1.000000" stroke="none" 
	d="
M463.231018,287.912170 
	C462.980713,287.945251 462.974731,287.488678 462.981598,287.260529 
	C463.152740,287.314636 463.317017,287.596863 463.231018,287.912170 
z"/>
<path fill="#8FE199" opacity="1.000000" stroke="none" 
	d="
M206.758438,423.098999 
	C206.894470,423.353668 206.709763,423.594360 206.266937,423.905731 
	C206.212906,423.726196 206.355865,423.429077 206.758438,423.098999 
z"/>
<path fill="#8FE199" opacity="1.000000" stroke="none" 
	d="
M210.269547,443.965088 
	C210.137466,443.724884 210.328049,443.465088 210.795410,443.129272 
	C210.844086,443.300690 210.684082,443.598114 210.269547,443.965088 
z"/>
<path fill="#86D192" opacity="1.000000" stroke="none" 
	d="
M173.913940,473.737610 
	C173.584656,473.766235 173.517181,473.521545 173.765533,473.135529 
	C173.868591,473.032867 173.962982,473.502930 173.913940,473.737610 
z"/>
<path fill="#86D192" opacity="1.000000" stroke="none" 
	d="
M173.926712,463.738312 
	C173.585953,463.770691 173.514709,463.524323 173.771759,463.132751 
	C173.878586,463.030182 173.974747,463.502258 173.926712,463.738312 
z"/>
<path fill="#98EDA3" opacity="1.000000" stroke="none" 
	d="
M448.628693,330.697113 
	C447.451965,329.775085 446.595062,328.911926 445.435669,327.956970 
	C443.351959,325.854980 441.570709,323.844849 439.067200,321.019592 
	C437.592712,323.792206 436.735931,325.403229 435.776001,327.340088 
	C434.373566,327.251221 432.740204,327.198639 431.831787,326.360443 
	C427.450104,322.317474 423.606689,318.419037 428.082886,311.556854 
	C430.567444,307.747955 427.762085,304.039032 424.138092,301.560638 
	C423.001282,300.783203 421.985504,299.828857 420.276611,298.435547 
	C425.075867,296.575714 429.107788,293.589844 432.871246,293.896667 
	C438.188446,294.330170 443.747131,296.483521 448.334625,299.310272 
	C450.815735,300.839081 451.348389,305.374664 453.032166,308.402496 
	C454.352295,310.776489 456.193634,312.856140 457.594788,315.191681 
	C458.193298,316.189331 458.615082,317.541779 458.498688,318.669159 
	C458.231995,321.252838 457.584961,323.797272 457.094269,326.347931 
	C453.915314,324.432983 450.678223,322.483032 447.441132,320.533051 
	C447.062256,321.064453 446.683411,321.595886 446.304535,322.127289 
	C447.464386,323.640381 448.988892,325.011627 449.652466,326.717743 
	C450.076416,327.807709 449.227051,329.392853 448.628693,330.697113 
z"/>
<path fill="#98EDA3" opacity="1.000000" stroke="none" 
	d="
M417.990784,298.357483 
	C418.085480,298.358490 417.986664,298.658844 417.986664,298.658844 
	C417.986664,298.658844 417.896088,298.356506 417.990784,298.357483 
z"/>
</svg>